<svg width="390" height="101" viewBox="0 0 390 101" fill="none" xmlns="http://www.w3.org/2000/svg">
<path d="M28.1818 100H0.909088L31.6364 6.90909H66.1818L96.9091 100H69.6364L49.2727 32.5455H48.5455L28.1818 100ZM23.0909 63.2727H74.3636V82.1818H23.0909V63.2727Z" fill="white"/>
<path d="M131.33 60.7273V100H106.239V30.1818H130.057V43.4545H130.784C132.299 39.0303 134.966 35.5606 138.784 33.0455C142.633 30.5303 147.117 29.2727 152.239 29.2727C157.178 29.2727 161.466 30.4091 165.102 32.6818C168.769 34.9242 171.602 38.0151 173.602 41.9545C175.633 45.8939 176.633 50.3939 176.602 55.4545V100H151.511V60.7273C151.542 57.2727 150.663 54.5606 148.875 52.5909C147.117 50.6212 144.663 49.6364 141.511 49.6364C139.451 49.6364 137.648 50.0909 136.102 51C134.587 51.8788 133.42 53.1515 132.602 54.8182C131.784 56.4545 131.36 58.4242 131.33 60.7273Z" fill="white"/>
<path d="M214.261 100.909C209.292 100.909 204.716 99.6061 200.534 97C196.383 94.3939 193.049 90.4394 190.534 85.1364C188.049 79.8333 186.807 73.1515 186.807 65.0909C186.807 56.6667 188.11 49.8182 190.716 44.5455C193.352 39.2727 196.746 35.4091 200.898 32.9545C205.08 30.5 209.473 29.2727 214.08 29.2727C217.534 29.2727 220.564 29.8788 223.17 31.0909C225.777 32.2727 227.958 33.8636 229.716 35.8636C231.473 37.8333 232.807 40 233.716 42.3636H234.08V6.90909H259.17V100H234.261V88.5455H233.716C232.746 90.9091 231.352 93.0303 229.534 94.9091C227.746 96.7576 225.564 98.2273 222.989 99.3182C220.443 100.379 217.534 100.909 214.261 100.909ZM223.534 81.6364C225.837 81.6364 227.807 80.9697 229.443 79.6364C231.11 78.2727 232.383 76.3636 233.261 73.9091C234.17 71.4242 234.625 68.4849 234.625 65.0909C234.625 61.6364 234.17 58.6818 233.261 56.2273C232.383 53.7424 231.11 51.8485 229.443 50.5455C227.807 49.2121 225.837 48.5455 223.534 48.5455C221.231 48.5455 219.261 49.2121 217.625 50.5455C216.019 51.8485 214.777 53.7424 213.898 56.2273C213.049 58.6818 212.625 61.6364 212.625 65.0909C212.625 68.5455 213.049 71.5152 213.898 74C214.777 76.4545 216.019 78.3485 217.625 79.6818C219.261 80.9848 221.231 81.6364 223.534 81.6364Z" fill="white"/>
<path d="M271.489 100V30.1818H295.852V43.4545H296.58C297.852 38.5455 299.867 34.9545 302.625 32.6818C305.413 30.4091 308.67 29.2727 312.398 29.2727C313.489 29.2727 314.564 29.3636 315.625 29.5455C316.716 29.697 317.761 29.9242 318.761 30.2273V51.6364C317.519 51.2121 315.989 50.8939 314.17 50.6818C312.352 50.4697 310.792 50.3636 309.489 50.3636C307.034 50.3636 304.822 50.9242 302.852 52.0455C300.913 53.1364 299.383 54.6818 298.261 56.6818C297.14 58.6515 296.58 60.9697 296.58 63.6364V100H271.489Z" fill="white"/>
<path d="M326.989 100V30.1818H352.08V100H326.989ZM339.534 22.9091C336.14 22.9091 333.231 21.7879 330.807 19.5455C328.383 17.303 327.17 14.6061 327.17 11.4545C327.17 8.30303 328.383 5.60606 330.807 3.36363C333.231 1.12121 336.14 0 339.534 0C342.958 0 345.867 1.12121 348.261 3.36363C350.686 5.60606 351.898 8.30303 351.898 11.4545C351.898 14.6061 350.686 17.303 348.261 19.5455C345.867 21.7879 342.958 22.9091 339.534 22.9091Z" fill="white"/>
<path d="M364.864 100V30.1818H389.955V100H364.864ZM377.409 22.9091C374.015 22.9091 371.106 21.7879 368.682 19.5455C366.258 17.303 365.045 14.6061 365.045 11.4545C365.045 8.30303 366.258 5.60606 368.682 3.36363C371.106 1.12121 374.015 0 377.409 0C380.833 0 383.742 1.12121 386.136 3.36363C388.561 5.60606 389.773 8.30303 389.773 11.4545C389.773 14.6061 388.561 17.303 386.136 19.5455C383.742 21.7879 380.833 22.9091 377.409 22.9091Z" fill="white"/>
</svg>
